<?xml version="1.0" encoding="UTF-8" standalone="no"?>
<svg
   xmlns:dc="http://purl.org/dc/elements/1.1/"
   xmlns:cc="http://creativecommons.org/ns#"
   xmlns:rdf="http://www.w3.org/1999/02/22-rdf-syntax-ns#"
   xmlns:svg="http://www.w3.org/2000/svg"
   xmlns="http://www.w3.org/2000/svg"
   version="1.1"
   id="svg2"
   viewBox="0 0 1403.149 974.40952"
   height="275mm"
   width="396mm">
  <defs
     id="defs4" />
  <metadata
     id="metadata7">
    <rdf:RDF>
      <cc:Work
         rdf:about="">
        <dc:format>image/svg+xml</dc:format>
        <dc:type
           rdf:resource="http://purl.org/dc/dcmitype/StillImage" />
        <dc:title></dc:title>
      </cc:Work>
    </rdf:RDF>
  </metadata>
  <g
     transform="translate(0,-77.952775)"
     style="display:inline"
     id="layer9">
    <path
       id="path4863-3"
       d="m 432.12401,481.6438 c -17.9691,1.9356 -47.2533,40.8488 -67.0511,97.628 -19.798,56.7789 -28.695,160.2376 -81.6537,183.3601 -4.4957,1.6625 -14.0394,3.8493 -19.0015,3.7626 -4.962,-0.086 -10.0007,-0.3288 -21.4353,-4.6691 -11.4343,-4.3408 -22.6455,-10.6118 -30.2167,-24.6894 -7.5708,-14.078 -12.7395,-32.6964 -8.6202,-46.0524 25.219,-63.3215 51.5866,-128.0173 76.7363,-186.5349 8.0194,-18.6583 17.3853,-36.5684 25.076,-53.4739 12.6106,-16.5317 23.1506,-38.7546 39.3564,-45.4041 15.7321,-6.355 22.6829,-3.4924 30.471,-1.509 l 27.7193,7.8235 c 12.9009,0.548 14.7715,-5.3007 19.8582,-1.2468 2.9205,23.6684 27.4202,63.8233 8.7611,71.0048 z"
       style="display:inline;opacity:1;fill:#ffffff;fill-rule:evenodd;stroke:#5fd35f;stroke-width:4.5;stroke-linecap:butt;stroke-linejoin:miter;stroke-miterlimit:4;stroke-dasharray:none;stroke-opacity:1" />
    <circle
       transform="matrix(-0.86602539,0.50000002,0.50000002,0.86602539,0,0)"
       r="45.249325"
       cy="740.32111"
       cx="125.6986"
       id="circle4865-7"
       style="display:inline;opacity:1;fill:#ffffff;fill-opacity:1;stroke:#5fd35f;stroke-width:4.5;stroke-miterlimit:4;stroke-dasharray:none;stroke-opacity:1" />
    <path
       id="path4867-4"
       d="m 974.77521,304.4684 8.4066,17.0691 c 3.5352,7.4296 9.8963,16.7668 5.8325,22.9878 l 10.92629,21.9385 -8.94369,4.7878 c -10.8138,-23.4435 -17.771,-35.358 -30.3458,-59.479 z"
       style="display:inline;opacity:1;fill:#ffffff;fill-rule:evenodd;stroke:#5fd35f;stroke-width:4.5;stroke-linecap:butt;stroke-linejoin:miter;stroke-miterlimit:4;stroke-dasharray:none;stroke-opacity:1" />
    <path
       id="path4869-5"
       d="m 977.54841,345.8032 c -9.6546,4.629 -7.711,5.0361 -1.9137,15.9516 5.6514,11.6798 5.3582,15.5 14.5232,10.1971 z"
       style="display:inline;opacity:1;fill:#d7f4d7;fill-opacity:1;fill-rule:evenodd;stroke:#5fd35f;stroke-width:4.5;stroke-linecap:butt;stroke-linejoin:miter;stroke-miterlimit:4;stroke-dasharray:none;stroke-opacity:1" />
    <path
       id="path4871-2"
       d="m 984.16861,217.8227 c 7.6752,3.7307 15.08459,4.7794 23.17699,12.7227 10.7393,11.7759 14.8152,21.1345 21.5316,32.8464 2.9799,5.9231 3.6075,10.8022 -6.608,16.8844 -97.75839,48.8406 -100.01209,51.5146 -149.97479,76.6399 -9.9581,2.9673 -13.1089,-0.6686 -17.3605,-6.9929 -4.2515,-6.3241 -9.9886,-20.28 -13.1731,-31.4443 -3.1845,-11.1645 -7.1027,-21.8781 5.412,-30.9022 l 27.911,-17.1144 z"
       style="display:inline;opacity:1;fill:#ffffff;fill-rule:evenodd;stroke:#5fd35f;stroke-width:4.5;stroke-linecap:butt;stroke-linejoin:miter;stroke-miterlimit:4;stroke-dasharray:none;stroke-opacity:1" />
    <path
       id="path4873-5"
       d="m 849.12771,227.2584 7.0336,11.484 c 21.7023,-12.7248 37.793,-20.9383 52.4484,-28.3752 10.1461,-5.1483 17.3157,-9.9129 21.0852,-13.376 2.4773,-2.2758 4.0094,-3.0399 2.9067,-6.2888 -0.4867,-1.4339 -2.6599,-3.6066 -4.0286,-5.4028 -3.9264,-5.1504 -17.7079,-19.10501 -18.0152,-26.00951 -0.2418,-6.9232 -0.7753,-9.848 -5.3215,-15.7532 -11.2153,-14.5682 -20.9904,-29.7884 -30.282,-43.0058 -7.2139,-8.934798 -15.2203,-7.907198 -22.6199,-9.203498 -25.4303,1.3667 -46.9167,14.849998 -59.8288,27.361798 -12.0431,16.9366 -19.5696,32.9132 -29.0557,49.306 z"
       style="display:inline;opacity:1;fill:#ffffff;fill-rule:evenodd;stroke:#5fd35f;stroke-width:4.5;stroke-linecap:butt;stroke-linejoin:miter;stroke-miterlimit:4;stroke-dasharray:none;stroke-opacity:1" />
    <path
       id="path4875-4"
       d="m 936.84721,204.054 c 0,0 29.8692,-4.9094 33.1401,-5.4548 3.271,-0.5452 12.5562,-1.1788 16.2112,7.8496 3.6549,9.0282 -0.8439,11.5094 -4.2681,14.4619 -3.4243,2.9523 -27.7958,15.7869 -34.6725,17.8884 -6.8766,2.1018 -34.8504,3.1012 -34.8504,3.1012 l 0.8966,-28.9938 z"
       style="display:inline;opacity:1;fill:#ffffff;fill-rule:evenodd;stroke:#5fd35f;stroke-width:4.5;stroke-linecap:butt;stroke-linejoin:miter;stroke-miterlimit:4;stroke-dasharray:none;stroke-opacity:1" />
    <path
       id="path4877-7"
       d="m 929.38191,197.1541 -67.1992,38.3697 13.1515,28.4941 c 0.4388,4.0868 -1.1466,11.1565 4.3051,7.7211 16.7304,-11.0669 14.2791,-0.589 20.0724,9.076 11.0518,-4.8062 29.9474,-14.846 44.25,-22.8536 2.3626,-1.3226 -3.6643,-6.2125 -3.7085,-9.6975 -0.045,-3.5204 0.08,-5.2139 2.7322,-8.7974 -4.2922,-0.1786 -8.8283,2.0446 -12.744,-3.5706 -1.8639,-9.1212 -23.1528,-24.4337 3.4042,-30.9132 z"
       style="display:inline;opacity:1;fill:#d7f4d7;fill-opacity:1;fill-rule:evenodd;stroke:#5fd35f;stroke-width:4.5;stroke-linecap:butt;stroke-linejoin:miter;stroke-miterlimit:4;stroke-dasharray:none;stroke-opacity:1" />
    <path
       id="path4879-4"
       d="m 960.52231,206.4761 c -11.3839,3.2813 -12.7576,5.8379 -7.2924,13.1313 3.8483,5.0288 3.175,8.2291 14.632,3.0798 13.2542,-7.25 10.8217,-9.598 9.1976,-12.3881 -4.2898,-6.2971 -12.2014,-4.2806 -16.5372,-3.823 z"
       style="display:inline;opacity:1;fill:#d7f4d7;fill-opacity:1;fill-rule:evenodd;stroke:#5fd35f;stroke-width:4.5;stroke-linecap:butt;stroke-linejoin:miter;stroke-miterlimit:4;stroke-dasharray:none;stroke-opacity:1" />
    <path
       id="path4885-0"
       d="m 752.80031,245.3841 c -28.1742,15.2938 -54.5346,24.3653 -81.7955,36.5261 -33.0313,18.9899 -65.33,50.9045 -102.3618,70.5331 -23.7141,9.6583 -45.0141,16.3496 -64.3084,30.0366 -6.151,7.064 -11.8851,14.9182 -15.8448,26.1359 l -70.378,-27.5628 c 2.6434,-4.6629 6.5409,-11.415 6.3298,-15.5748 -3.0983,-12.6379 -6.8081,-21.9887 -8.7121,-34.8148 -0.018,-15.387 9.017,-31.495 26.319,-44.8064 68.0443,-45.5966 131.4018,-56.4755 193.8894,-60.9114"
       style="display:inline;opacity:1;fill:#ffffff;fill-rule:evenodd;stroke:#5fd35f;stroke-width:4.5;stroke-linecap:butt;stroke-linejoin:miter;stroke-miterlimit:4;stroke-dasharray:none;stroke-opacity:1" />
    <path
       id="path4881-4"
       d="m 706.58841,195.0389 c 14.322,-7.2784 15.9583,-7.8163 17.4097,-8.9679 1.4514,-1.1518 1.8225,-8.9731 34.665,-33.81761 32.8424,-24.8444 62.2606,-13.035 79.7499,15.2448 17.4892,28.27991 0.4628,64.88711 -27.6569,75.14091 -13.2057,5.6821 -29.6355,4.8136 -58.023,2.8923 l -17.2932,1.6615 -102.9121,44.1896 -4.6552,1.4864 c -18.8112,5.861 -37.0772,3.8656 -46.7971,-13.9795 -8.8014,-19.8351 3.7571,-32.713 20.6543,-40.6031 l 34.2999,-13.2474 c 0,0 56.2367,-22.7214 70.5587,-30 z"
       style="display:inline;opacity:1;fill:#d7f4d7;fill-opacity:1;fill-rule:evenodd;stroke:#5fd35f;stroke-width:4.5;stroke-linecap:butt;stroke-linejoin:miter;stroke-miterlimit:4;stroke-dasharray:none;stroke-opacity:1" />
    <path
       id="path4883-3"
       d="m 706.67571,212.0594 -8.7368,23.9646 -44.9996,15.1314 -19.1343,-10.5988 c -6.4711,3.3369 -12.6741,3.3304 -19.8034,12.4041 -7.1294,9.0736 2.2555,22.0614 14.4994,24.133 12.244,2.0718 75.8084,-31.3759 108.6182,-40.7808 21.4563,-6.6401 43.6401,-6.0378 52.2368,-7.1066 8.5966,-1.0688 15.2283,-4.4586 21.2131,-9.2347 5.9847,-4.7759 16.0103,-24.8845 13.1569,-34.5591 -2.8535,-9.6746 -8.416,-14.47551 -16.0097,-20.10561 -8.9271,-6.7016 -19.5286,-8.3051 -32.9864,-3.1148 -12.256,6.9747 -22.163,17.03261 -32.5265,27.11911 -9.8747,11.4737 -22.7312,17.2933 -35.5277,22.7482 z"
       style="display:inline;opacity:1;fill:#ffffff;fill-rule:evenodd;stroke:#5fd35f;stroke-width:4.5;stroke-linecap:butt;stroke-linejoin:miter;stroke-miterlimit:4;stroke-dasharray:none;stroke-opacity:1" />
    <circle
       transform="matrix(-0.98480775,0.17364817,0.17364817,0.98480775,0,0)"
       style="display:inline;opacity:1;fill:#d7f4d7;fill-opacity:1;stroke:#5fd35f;stroke-width:4.5;stroke-miterlimit:4;stroke-dasharray:none;stroke-opacity:1"
       id="circle4887-7"
       cx="-368.81204"
       cy="496.05487"
       r="65.716003" />
    <ellipse
       transform="matrix(-0.98480775,0.17364817,0.17364817,0.98480775,0,0)"
       ry="41.82346"
       rx="41.139866"
       style="display:inline;opacity:1;fill:#ffffff;fill-opacity:1;stroke:#5fd35f;stroke-width:4.5;stroke-miterlimit:4;stroke-dasharray:none;stroke-opacity:1"
       id="ellipse4889-8"
       cx="-370.0386"
       cy="495.12128" />
    <path
       id="path4891-6"
       d="m 916.57141,334.0823 9.1602,16.6768 c 4.0583,7.1572 8.0583,17.7237 15.485,17.963 l 11.7043,21.5337 9.0516,-4.58 c -13.0011,-22.3049 -18.7705,-34.8379 -31.3171,-58.9734 z"
       style="display:inline;opacity:1;fill:#ffffff;fill-rule:evenodd;stroke:#5fd35f;stroke-width:4.5;stroke-linecap:butt;stroke-linejoin:miter;stroke-miterlimit:4;stroke-dasharray:none;stroke-opacity:1" />
    <path
       id="path4893-8"
       d="m 948.84021,360.0628 c 9.3295,-5.2535 8.5482,-3.4278 14.1645,7.5818 6.3261,11.3287 9.6237,13.2796 0.023,17.7455 z"
       style="display:inline;opacity:1;fill:#d7f4d7;fill-opacity:1;fill-rule:evenodd;stroke:#5fd35f;stroke-width:4.5;stroke-linecap:butt;stroke-linejoin:miter;stroke-miterlimit:4;stroke-dasharray:none;stroke-opacity:1" />
    <path
       id="path4895-8"
       d="m 928.72621,285.3405 c -61.6646,32.2291 -61.7398,28.9453 -56.4668,38.8466 5.2726,9.9011 2.3788,8.677 64.4901,-23.4044 62.11149,-32.0815 61.59779,-28.3917 56.3464,-38.4751 -5.2514,-10.0832 -2.7047,-9.1962 -64.3697,23.0329 z"
       style="display:inline;opacity:1;fill:#e2f3d5;fill-opacity:1;fill-rule:evenodd;stroke:#5fd35f;stroke-width:4.5;stroke-linecap:butt;stroke-linejoin:miter;stroke-miterlimit:4;stroke-dasharray:none;stroke-opacity:1" />
    <text
       id="text4206"
       y="426.99915"
       x="1182.4264"
       style="font-style:normal;font-variant:normal;font-weight:normal;font-stretch:normal;font-size:40px;line-height:100%;font-family:cmr10;-inkscape-font-specification:cmr10;letter-spacing:0px;word-spacing:0px;fill:#185818;fill-opacity:1;stroke:none;stroke-width:1px;stroke-linecap:butt;stroke-linejoin:miter;stroke-opacity:1"
       xml:space="preserve"><tspan
         style="font-size:62.50000763px;line-height:100%;text-align:center;text-anchor:middle;fill:#185818;fill-opacity:1"
         y="426.99915"
         x="1192.8634"
         id="tspan4208">Initial </tspan><tspan
         style="font-size:62.50000763px;line-height:100%;text-align:center;text-anchor:middle;fill:#185818;fill-opacity:1"
         id="tspan4734"
         y="489.49915"
         x="1182.4264">Manipulability</tspan></text>
    <text
       id="text4210"
       y="884.36816"
       x="923.01996"
       style="font-style:normal;font-variant:normal;font-weight:normal;font-stretch:normal;font-size:40px;line-height:940.4999733%;font-family:cmr10;-inkscape-font-specification:cmr10;letter-spacing:0px;word-spacing:0px;fill:#005a70;fill-opacity:1;stroke:none;stroke-width:1px;stroke-linecap:butt;stroke-linejoin:miter;stroke-opacity:1"
       xml:space="preserve"><tspan
         style="font-style:normal;font-variant:normal;font-weight:normal;font-stretch:normal;font-size:62.50000763px;line-height:100%;font-family:cmr10;-inkscape-font-specification:cmr10;text-align:center;text-anchor:middle;fill:#005a70;fill-opacity:1"
         y="884.36816"
         x="933.45697"
         id="tspan4212">Final </tspan><tspan
         id="tspan4736"
         style="font-style:normal;font-variant:normal;font-weight:normal;font-stretch:normal;font-size:62.50000763px;line-height:100%;font-family:cmr10;-inkscape-font-specification:cmr10;text-align:center;text-anchor:middle;fill:#005a70;fill-opacity:1"
         y="946.86816"
         x="923.01996">Manipulability</tspan></text>
  </g>
  <g
     transform="translate(0,-77.952775)"
     style="display:inline;opacity:1"
     id="g4823">
    <path
       id="path4861"
       d="m 342.33221,1043.1463 -184.8885,-0.2308 0.9785,-39.1729 c 0.9863,-11.7122 12.9392,-28.7425 25.3329,-37.4857 11.49,-8.1058 30.6097,-24.4523 29.294,-32.0577 5.0002,-68.6116 7.2028,-88.4102 -0.2776,-215.8565 l 92.4452,22.2598 c 5.1223,62.6961 9.2705,127.4651 8.2477,191.5793 3.2858,12.4001 9.1311,18.4705 17.3215,26.6071 l 2.7204,6.8879 z"
       style="display:inline;fill:#ffffff;fill-rule:evenodd;stroke:#37abc8;stroke-width:4.5;stroke-linecap:butt;stroke-linejoin:miter;stroke-miterlimit:4;stroke-dasharray:none;stroke-opacity:1" />
    <path
       id="path4863"
       d="m 201.95111,433.5783 c -10.0676,15.0093 0.918,62.4555 31.6873,114.1183 30.7694,51.6628 104.3046,124.9804 87.9764,180.4119 -1.6162,4.5127 -6.0755,13.2291 -9.3316,16.9748 -3.2559,3.7455 -6.6804,7.4495 -17.3553,13.4184 -10.6747,5.9694 -22.6852,10.527 -38.3358,7.2777 -15.651,-3.2494 -33.2357,-11.2578 -40.8192,-22.9984 -32.2966,-60.021 -64.9078,-121.8055 -93.5688,-178.6856 -9.1387,-18.1364 -16.8382,-36.8236 -24.845,-53.5819 -4.557801,-20.2865 -14.806901,-42.6453 -9.483701,-59.3339 5.2439,-16.1363 11.904701,-19.6208 18.430401,-24.3119 l 23.8105,-16.2054 c 8.7124,-9.5303 5.4345,-14.7231 11.8097,-16.0139 20.0084,12.9766 66.5171,20.02 60.0246,38.9298 z"
       style="display:inline;fill:#ffffff;fill-opacity:1;fill-rule:evenodd;stroke:#37abc8;stroke-width:4.5;stroke-linecap:butt;stroke-linejoin:miter;stroke-miterlimit:4;stroke-dasharray:none;stroke-opacity:1" />
    <circle
       transform="matrix(-0.17364817,0.98480775,0.98480775,0.17364817,0,0)"
       r="45.249325"
       cy="381.31555"
       cx="651.03052"
       id="circle4865"
       style="display:inline;fill:#ffffff;fill-opacity:1;stroke:#37abc8;stroke-width:4.5;stroke-miterlimit:4;stroke-dasharray:none" />
    <path
       id="path4867"
       d="m 719.72221,685.4033 0.4056,19.0229 c 0.064,8.2274 1.883,19.3783 -4.4291,23.2989 l 0.6311,24.5005 -10.1294,0.5594 c 0.107,-25.817 -1.1633,-39.5555 -2.3652,-66.7308 z"
       style="display:inline;fill:#ffffff;fill-rule:evenodd;stroke:#37abc8;stroke-width:4.5;stroke-linecap:butt;stroke-linejoin:miter;stroke-miterlimit:4;stroke-dasharray:none;stroke-opacity:1" />
    <path
       id="path4869"
       d="m 704.76681,724.0377 c -10.7061,0.1149 -9.1167,1.3053 -8.4757,13.648 0.1857,12.974 -1.6944,16.3124 8.853,15.3795 z"
       style="display:inline;fill:#80e5ff;fill-rule:evenodd;stroke:#37abc8;stroke-width:4.5;stroke-linecap:butt;stroke-linejoin:miter;stroke-miterlimit:4;stroke-dasharray:none;stroke-opacity:1" />
    <path
       id="path4871"
       d="m 764.85361,610.8457 c 5.3797,6.6247 11.6513,10.7065 15.6289,21.3257 4.7563,15.2111 4.4956,25.4154 5.6329,38.8682 0.1971,6.6281 -1.2959,11.315 -13.1249,12.5098 -109.2397,2.9504 -112.4126,4.4215 -168.3128,6.0776 -10.2791,-1.5191 -11.5981,-6.1461 -12.7785,-13.6748 -1.1807,-7.5284 -0.4821,-22.6012 1.35,-34.065 1.8323,-11.4646 2.8089,-22.8304 17.9648,-25.7198 l 32.529,-3.7155 z"
       style="display:inline;fill:#ffffff;fill-rule:evenodd;stroke:#37abc8;stroke-width:4.5;stroke-linecap:butt;stroke-linejoin:miter;stroke-miterlimit:4;stroke-dasharray:none;stroke-opacity:1" />
    <path
       id="path4873"
       d="m 638.47751,562.3264 1.5214,13.3807 c 25.0463,-2.3608 43.1007,-3.0044 59.5262,-3.551 11.371,-0.3778 19.8825,-1.6662 24.7624,-3.2119 3.2071,-1.0154 4.9184,-1.0603 5.2924,-4.4712 0.1647,-1.5049 -0.8868,-4.3926 -1.3681,-6.5989 -1.3818,-6.3274 -7.9747,-24.7989 -5.3353,-31.1863 2.7067,-6.377 3.4596,-9.2532 1.8351,-16.5265 -4.0083,-17.9426 -6.435,-35.8677 -9.27,-51.7739 -2.7621,-11.1465 -10.4526,-13.599 -16.6111,-17.9008 -23.6251,-9.5087 -48.797,-6.3688 -65.7872,-0.4868 -18.072,10.2604 -31.6455,21.5593 -47.1706,32.4072 z"
       style="display:inline;fill:#ffffff;fill-rule:evenodd;stroke:#37abc8;stroke-width:4.5;stroke-linecap:butt;stroke-linejoin:miter;stroke-miterlimit:4;stroke-dasharray:none;stroke-opacity:1" />
    <path
       id="path4875"
       d="m 727.78481,578.3678 c 0,0 29.1458,8.1741 32.3404,9.0621 3.1949,0.8884 11.8779,4.2381 11.3749,13.9655 -0.5028,9.7268 -5.6288,10.0742 -9.9801,11.3029 -4.351,1.229 -31.8631,2.5608 -38.9839,1.559 -7.1201,-1.0012 -32.8959,-11.9172 -32.8959,-11.9172 l 13.0662,-25.8986 z"
       style="display:inline;fill:#ffffff;fill-rule:evenodd;stroke:#37abc8;stroke-width:4.5;stroke-linecap:butt;stroke-linejoin:miter;stroke-miterlimit:4;stroke-dasharray:none;stroke-opacity:1" />
    <path
       id="path4877"
       d="m 723.93491,568.9596 -77.1188,6.3752 -0.123,31.3822 c -1.3293,3.8894 -5.7538,9.6269 0.639,8.8176 19.8399,-2.9597 13.19,5.5006 14.3561,16.7082 12.0474,0.3146 33.4155,-0.7986 49.7624,-2.0113 2.7002,-0.2001 -0.6953,-7.1794 0.7372,-10.3564 1.4472,-3.2095 2.2756,-4.6916 6.1942,-6.8183 -3.8144,-1.9757 -8.8653,-1.8782 -10.0409,-8.622 2.1654,-9.0543 -10.6575,-31.9294 16.1496,-26.5779 z"
       style="display:inline;fill:#80e5ff;fill-rule:evenodd;stroke:#37abc8;stroke-width:4.5;stroke-linecap:butt;stroke-linejoin:miter;stroke-miterlimit:4;stroke-dasharray:none;stroke-opacity:1" />
    <path
       id="path4879"
       d="m 748.21811,590.5689 c -11.7041,-1.8369 -14.0296,-0.1009 -12.1587,8.8189 1.3628,6.1839 -0.6002,8.8 11.9597,8.975 15.0762,-0.9693 13.8639,-4.1255 13.5711,-7.3403 -1.2265,-7.5199 -9.2492,-9.0361 -13.3721,-10.4536 z"
       style="display:inline;fill:#80e5ff;fill-rule:evenodd;stroke:#37abc8;stroke-width:4.5;stroke-linecap:butt;stroke-linejoin:miter;stroke-miterlimit:4;stroke-dasharray:none;stroke-opacity:1" />
    <path
       id="path4885"
       d="m 525.77981,498.7216 c -29.8261,-11.7519 -53.7192,-26.1141 -80.5578,-39.1807 -35.7791,-13.097 -80.9884,-17.3247 -119.8287,-33.0754 -22.6418,-11.9578 -41.4591,-23.9735 -64.3454,-29.9563 -9.3653,-0.1711 -19.0681,0.485 -30.2066,4.6624 l -24.1235,-71.6301 c 5.271,-0.9718 12.9489,-2.3266 16,-5.162 7.6891,-10.4969 12.4675,-19.3498 21.0689,-29.0524 11.7759,-9.9047 29.9231,-13.3373 51.2414,-8.6396 78.6672,22.8161 127.7263,64.3582 171.2906,109.375"
       style="display:inline;fill:#ffffff;fill-rule:evenodd;stroke:#37abc8;stroke-width:4.5;stroke-linecap:butt;stroke-linejoin:miter;stroke-miterlimit:4;stroke-dasharray:none;stroke-opacity:1" />
    <path
       id="path4881"
       d="m 534.64191,430.9604 c 14.7819,6.2925 16.2457,7.2004 18.0605,7.5718 1.8153,0.3718 8.0455,-4.3717 48.188,4.8176 40.1425,9.1889 50.0059,39.3155 39.5841,70.8911 -10.4215,31.5752 -49.4092,42.0632 -75.3388,27.1133 -12.8411,-6.4641 -22.7365,-19.6084 -39.5118,-42.5889 l -12.3891,-12.1796 -100.0015,-50.4307 -4.1311,-2.6108 c -16.5816,-10.643 -26.794,-25.9182 -19.3718,-44.8346 9.5374,-19.492 27.4749,-18.1492 44.3802,-10.277 l 32.1957,17.7599 c 0,0 53.5541,28.475 68.3356,34.7679 z"
       style="display:inline;fill:#80e5ff;fill-rule:evenodd;stroke:#37abc8;stroke-width:4.5;stroke-linecap:butt;stroke-linejoin:miter;stroke-miterlimit:4;stroke-dasharray:none;stroke-opacity:1" />
    <path
       id="path4883"
       d="m 521.65961,441.9677 -23.974,8.7112 -40.5163,-24.7453 -4.1802,-21.4705 c -6.7157,-2.8123 -10.6983,-7.5679 -22.2314,-7.1972 -11.5335,0.3709 -15.4505,15.9086 -9.167,26.6195 6.283,10.7114 72.7641,37.9048 101.0583,56.9934 18.8784,12.1679 32.6764,29.5489 39.0213,35.4473 6.3443,5.8985 13.2039,8.7996 20.7094,10.3144 7.5056,1.5144 29.354,-3.7311 34.9311,-12.1357 5.5771,-8.4047 5.6787,-15.7515 5.1107,-25.1873 -0.6043,-11.1467 -6.1905,-20.2984 -18.817,-27.2715 -13.221,-4.9057 -27.2938,-6.0295 -41.6822,-7.485 -15.1365,-0.1893 -27.8589,-6.2974 -40.2627,-12.5933 z"
       style="display:inline;fill:#ffffff;fill-rule:evenodd;stroke:#37abc8;stroke-width:4.5;stroke-linecap:butt;stroke-linejoin:miter;stroke-miterlimit:4;stroke-dasharray:none;stroke-opacity:1" />
    <circle
       transform="matrix(-0.76604445,-0.6427876,-0.6427876,0.76604445,0,0)"
       style="display:inline;fill:#80e5ff;fill-opacity:1;stroke:#37abc8;stroke-width:4.5;stroke-miterlimit:4;stroke-dasharray:none"
       id="circle4887"
       cx="-393.401"
       cy="167.75514"
       r="65.716003" />
    <ellipse
       transform="matrix(-0.76604445,-0.6427876,-0.6427876,0.76604445,0,0)"
       ry="41.82346"
       rx="41.139866"
       style="display:inline;fill:#ffffff;fill-opacity:1;stroke:#37abc8;stroke-width:4.5;stroke-miterlimit:4;stroke-dasharray:none"
       id="ellipse4889"
       cx="-394.62756"
       cy="166.82155" />
    <path
       id="path4891"
       d="m 654.45651,687.6446 1.2542,18.9857 c 0.6533,8.2016 -0.1873,19.4688 6.4426,22.8245 l 1.5067,24.4624 10.1396,-0.3255 c -2.3566,-25.7096 -2.2889,-39.5065 -3.4596,-66.6834 z"
       style="display:inline;fill:#ffffff;fill-rule:evenodd;stroke:#37abc8;stroke-width:4.5;stroke-linecap:butt;stroke-linejoin:miter;stroke-miterlimit:4;stroke-dasharray:none;stroke-opacity:1" />
    <path
       id="path4893"
       d="m 672.72221,724.8285 c 10.6755,-0.8188 9.1959,0.5057 9.633,12.8575 0.9456,12.941 3.1097,16.1026 -7.4789,16.0925 z"
       style="display:inline;fill:#80e5ff;fill-rule:evenodd;stroke:#37abc8;stroke-width:4.5;stroke-linecap:butt;stroke-linejoin:miter;stroke-miterlimit:4;stroke-dasharray:none;stroke-opacity:1" />
    <path
       id="path4895"
       d="m 686.07151,648.6065 c -69.5075,3.1488 -68.1881,0.1409 -67.5936,11.3432 0.5943,11.2015 -1.5109,8.8693 68.3392,6.0431 69.8503,-2.8263 67.8254,0.3006 67.3273,-11.0571 -0.4976,-11.3579 1.4354,-9.478 -68.0729,-6.3291 z"
       style="fill:#80e5ff;fill-rule:evenodd;stroke:#37abc8;stroke-width:4.5;stroke-linecap:butt;stroke-linejoin:miter;stroke-miterlimit:4;stroke-dasharray:none;stroke-opacity:1" />
    <path
       id="path4897"
       d="m 311.26051,1032.247 c -5.6202,1.2568 -4.7999,-1.6943 -11.8792,-42.1925 -7.0792,-40.4982 -10.5187,-41.956 -4.0938,-44.1832 6.4249,-2.2273 5.5028,-0.8521 13.2552,41.1231 7.7523,41.9753 8.338,43.9958 2.7178,45.2526 z"
       style="fill:#80e5ff;fill-rule:evenodd;stroke:#37abc8;stroke-width:4.5;stroke-linecap:butt;stroke-linejoin:miter;stroke-miterlimit:4;stroke-dasharray:none;stroke-opacity:1" />
    <path
       id="path4899"
       d="m 207.45391,996.8887 16.849,-0.2762 c 0.079,9.1165 -1.1765,14.7254 -8.3555,14.9846 -7.179,0.2592 -8.5069,-5.7957 -8.4935,-14.7084 z"
       style="fill:#80e5ff;fill-rule:evenodd;stroke:#37abc8;stroke-width:4.5;stroke-linecap:butt;stroke-linejoin:miter;stroke-miterlimit:4;stroke-dasharray:none;stroke-opacity:1" />
    <path
       id="path4901"
       d="m 245.90511,995.4259 c 5.5244,-0.06 7.9302,5.3187 7.9438,8.3218 0.014,3.0032 -2.7347,7.626 -8.1465,7.557 -5.4118,-0.069 -8.3359,-3.5587 -8.2089,-7.1827 0.127,-3.6239 2.8872,-8.6357 8.4116,-8.6961 z"
       style="display:inline;fill:#80e5ff;fill-rule:evenodd;stroke:#37abc8;stroke-width:4.5;stroke-linecap:butt;stroke-linejoin:miter;stroke-miterlimit:4;stroke-dasharray:none;stroke-opacity:1" />
    <ellipse
       transform="matrix(0.99885036,-0.04793693,-0.01444407,0.99989568,0,0)"
       cx="-742.27509"
       cy="76.591248"
       rx="208.47473"
       ry="145.06779"
       id="path4903"
       style="fill:none;fill-opacity:1;stroke:#ff5555;stroke-width:6.5063343;stroke-miterlimit:4;stroke-dasharray:39.03800719, 6.50633453;stroke-dashoffset:0;stroke-opacity:1" />
    <path
       id="path5014"
       d="m 888.95675,441.64546 c -1.23426,4.07898 -20.91121,20.3484 -27.13714,29.6478 -6.22604,9.29931 -2.72939,31.18997 -9.20209,42.19994 -6.4724,11.01004 -22.57497,14.82711 -28.58432,26.417 -2.60672,5.02715 -2.9841,13.7589 -4.24663,20.63584 -1.63448,8.90222 -5.51293,15.47084 -6.17131,14.73518 l -6.40524,-21.25186"
       style="display:inline;fill:none;fill-rule:evenodd;stroke:#ff5555;stroke-width:6.5;stroke-linecap:butt;stroke-linejoin:miter;stroke-miterlimit:4;stroke-dasharray:none;stroke-opacity:1" />
    <path
       id="path5016"
       d="m 814.18581,575.04764 21.30681,-10.43361"
       style="display:inline;fill:none;fill-rule:evenodd;stroke:#ff5555;stroke-width:6.5;stroke-linecap:butt;stroke-linejoin:miter;stroke-miterlimit:4;stroke-dasharray:none;stroke-opacity:1" />
    <ellipse
       transform="matrix(0.87706836,-0.48036559,0.52001398,0.85415775,0,0)"
       cx="-700.258"
       cy="-226.16745"
       rx="106.55526"
       ry="71.698616"
       id="path4903-4-2"
       style="display:inline;opacity:1;fill:none;fill-opacity:1;stroke:#ff5555;stroke-width:6.50341034;stroke-miterlimit:4;stroke-dasharray:39.02046085, 6.50341014;stroke-dashoffset:0;stroke-opacity:1" />
  </g>
  <g
     style="display:inline"
     id="layer1">
    <ellipse
       transform="matrix(0.99324569,-0.11603015,0.0542528,0.99852723,0,0)"
       cx="654.31494"
       cy="722.16626"
       rx="210.91147"
       ry="145.05943"
       id="path4903-3"
       style="display:inline;opacity:1;fill:none;fill-opacity:1;stroke:#ff5555;stroke-width:3.00288796;stroke-miterlimit:4;stroke-dasharray:72.06931099, 3.00288796;stroke-dashoffset:0;stroke-opacity:1" />
    <path
       d="M 635.14279,617.80064 A 181.65736,19.244694 0 0 1 715.18261,639.33427 181.65736,19.244694 0 0 1 542.03289,653.44515 181.65736,19.244694 0 0 1 366.09572,639.7267 181.65736,19.244694 0 0 1 441.8043,618.01798"
       transform="matrix(0.99683773,-0.07946407,0.24061525,0.97062058,0,0)"
       id="path4903-6"
       style="display:inline;opacity:1;fill:none;fill-opacity:1;stroke:#ff5555;stroke-width:3.02019548;stroke-miterlimit:4;stroke-dasharray:72.48469002, 3.02019542;stroke-dashoffset:0;stroke-opacity:1" />
    <path
       d="m 780.18993,668.87605 a 210.31766,36.902519 0 0 1 104.3871,43.6999 210.31766,36.902519 0 0 1 -226.84772,25.70759 210.31766,36.902519 0 0 1 -184.08566,-34.66803 210.31766,36.902519 0 0 1 162.17278,-37.88753"
       transform="matrix(0.99672427,-0.08087474,0.01151747,0.99993367,0,0)"
       id="path4903-7-5"
       style="display:inline;opacity:1;fill:none;fill-opacity:1;stroke:#ff5555;stroke-width:3.00362253;stroke-miterlimit:4;stroke-dasharray:72.0869434, 3.00362264;stroke-dashoffset:0;stroke-opacity:1" />
    <path
       d="m 1058.5635,1561.735 a 16.047123,143.74011 0 0 1 -19.1661,92.7996 16.047123,143.74011 0 0 1 -11.8299,-163.8797 16.047123,143.74011 0 0 1 17.3125,-118.478"
       transform="matrix(0.55723223,-0.8303567,0.07516255,0.99717129,0,0)"
       id="path4903-6-3"
       style="display:inline;opacity:1;fill:none;fill-opacity:1;stroke:#ff5555;stroke-width:3.81595564;stroke-miterlimit:4;stroke-dasharray:91.58293239, 3.81595552;stroke-dashoffset:0;stroke-opacity:1" />
    <ellipse
       transform="matrix(0.30852669,-0.95121569,0.06734238,0.99772993,0,0)"
       cx="2049.8726"
       cy="2586.2312"
       rx="11.584888"
       ry="117.09673"
       id="path4903-6-3-5"
       style="display:inline;opacity:1;fill:none;fill-opacity:1;stroke:#ff5555;stroke-width:4.91946554;stroke-miterlimit:4;stroke-dasharray:118.06716999, 4.91946542;stroke-dashoffset:0;stroke-opacity:1" />
    <path
       d="m 643.7156,1002.8573 a 21.326595,126.81584 0 0 1 -12.31244,146.8841 21.326595,126.81584 0 0 1 -26.37457,-48.3602 21.326595,126.81584 0 0 1 3.73662,-162.60869 21.326595,126.81584 0 0 1 27.58955,-4.51276"
       transform="matrix(0.80250009,-0.596652,0.08718966,0.99619173,0,0)"
       id="path4903-6-3-6"
       style="display:inline;opacity:1;fill:none;fill-opacity:1;stroke:#ff5555;stroke-width:3.25115538;stroke-miterlimit:4;stroke-dasharray:78.02772776, 3.25115532;stroke-dashoffset:0;stroke-opacity:1" />
    <ellipse
       ry="21.940571"
       rx="175.39249"
       cy="781.88611"
       cx="544.02997"
       transform="matrix(0.99665933,-0.08167117,0.18516582,0.98270729,0,0)"
       id="path4903-6-36"
       style="display:inline;opacity:1;fill:none;fill-opacity:1;stroke:#ff5555;stroke-width:3.00821352;stroke-miterlimit:4;stroke-dasharray:72.19712385, 3.00821349;stroke-dashoffset:0;stroke-opacity:1" />
  </g>
  <g
     id="g4783"
     style="display:inline">
    <ellipse
       transform="matrix(0.89001819,-0.45592501,0.39989164,0.91656242,0,0)"
       cx="-1107.8389"
       cy="-19.388781"
       rx="106.92108"
       ry="73.53756"
       id="path4903-3-9-2"
       style="display:inline;opacity:1;fill:none;fill-opacity:1;stroke:#ff5555;stroke-width:3.00288796;stroke-miterlimit:4;stroke-dasharray:36.03465541, 3.00288795;stroke-dashoffset:0;stroke-opacity:1" />
    <ellipse
       transform="matrix(0.89800659,-0.43998201,0.39178928,0.92005498,0,0)"
       cx="-1106.4607"
       cy="1.3147074"
       rx="106.90565"
       ry="45.881958"
       id="path4903-6-1-0"
       style="display:inline;opacity:1;fill:none;fill-opacity:1;stroke:#ff5555;stroke-width:3.00210929;stroke-miterlimit:4;stroke-dasharray:36.02531113, 3.00210926;stroke-dashoffset:0;stroke-opacity:1" />
    <ellipse
       transform="matrix(0.90556681,-0.42420367,0.36034424,0.9328194,0,0)"
       cx="-1105.0426"
       cy="20.391983"
       rx="106.62009"
       ry="18.707651"
       id="path4903-7-5-2-2"
       style="display:inline;opacity:1;fill:none;fill-opacity:1;stroke:#ff5555;stroke-width:3.00362253;stroke-miterlimit:4;stroke-dasharray:36.04347161, 3.00362263;stroke-dashoffset:0;stroke-opacity:1" />
    <ellipse
       transform="matrix(0.23180192,-0.97276301,0.41900813,0.90798248,0,0)"
       cx="-1785.1323"
       cy="-1377.2928"
       rx="8.1350546"
       ry="72.868736"
       id="path4903-6-3-7-3"
       style="display:inline;opacity:1;fill:none;fill-opacity:1;stroke:#ff5555;stroke-width:3.81595564;stroke-miterlimit:4;stroke-dasharray:45.79146676, 3.81595556;stroke-dashoffset:0;stroke-opacity:1" />
    <ellipse
       transform="matrix(-0.04346171,-0.99905509,0.41187664,0.91123961,0,0)"
       cx="-2813.5518"
       cy="-2580.4197"
       rx="5.8729339"
       ry="59.361935"
       id="path4903-6-3-5-0-7"
       style="display:inline;opacity:1;fill:none;fill-opacity:1;stroke:#ff5555;stroke-width:4.91946554;stroke-miterlimit:4;stroke-dasharray:59.03358633, 4.91946553;stroke-dashoffset:0;stroke-opacity:1" />
    <ellipse
       transform="matrix(0.543293,-0.83954316,0.429934,0.90286032,0,0)"
       cx="-1359.1741"
       cy="-698.17963"
       rx="10.811471"
       ry="64.289024"
       id="path4903-6-3-6-9-5"
       style="display:inline;opacity:1;fill:none;fill-opacity:1;stroke:#ff5555;stroke-width:3.25115538;stroke-miterlimit:4;stroke-dasharray:39.01386384, 3.25115532;stroke-dashoffset:0;stroke-opacity:1" />
    <ellipse
       transform="matrix(0.88663245,-0.46247476,0.40663862,0.9135891,0,0)"
       cx="768.26172"
       cy="686.65308"
       rx="104.3222"
       ry="71.750114"
       id="path4903-3-92"
       style="display:inline;opacity:1;fill:none;fill-opacity:1;stroke:#ff5555;stroke-width:3.00288796;stroke-miterlimit:4;stroke-dasharray:72.06931084, 3.00288795;stroke-dashoffset:0;stroke-opacity:1" />
    <path
       d="m 741.37759,630.92008 a 89.852386,9.518918 0 0 1 -89.55944,9.53049 89.852386,9.518918 0 0 1 -90.14401,-9.46843"
       transform="matrix(0.9030234,-0.42959137,0.57080994,0.82108222,0,0)"
       id="path4903-6-2"
       style="display:inline;opacity:1;fill:none;fill-opacity:1;stroke:#ff5555;stroke-width:3.02019548;stroke-miterlimit:4;stroke-dasharray:72.48469015, 3.02019542;stroke-dashoffset:0;stroke-opacity:1" />
    <path
       d="m 829.64313,644.20213 a 104.0285,18.252932 0 0 1 68.53592,20.2035 104.0285,18.252932 0 0 1 -101.78229,15.29228 104.0285,18.252932 0 0 1 -103.22451,-14.99171 104.0285,18.252932 0 0 1 66.60218,-20.40163"
       transform="matrix(0.90241452,-0.43086892,0.36721215,0.93013721,0,0)"
       id="path4903-7-5-8"
       style="display:inline;opacity:1;fill:none;fill-opacity:1;stroke:#ff5555;stroke-width:3.00362253;stroke-miterlimit:4;stroke-dasharray:72.08694325, 3.00362264;stroke-dashoffset:0;stroke-opacity:1" />
    <path
       d="m 1230.2616,1656.6446 a 7.9373193,71.097542 0 0 1 -9.8665,24.9606 7.9373193,71.097542 0 0 1 -4.3837,-83.0177 7.9373193,71.097542 0 0 1 8.4131,-52.4852"
       transform="matrix(0.22462341,-0.97444565,0.42569134,0.90486843,0,0)"
       id="path4903-6-3-9"
       style="display:inline;opacity:1;fill:none;fill-opacity:1;stroke:#ff5555;stroke-width:3.81595564;stroke-miterlimit:4;stroke-dasharray:91.58293278, 3.81595553;stroke-dashoffset:0;stroke-opacity:1" />
    <path
       d="m 2201.6555,2660.0398 a 5.7301826,57.919041 0 0 1 -1.413,68.1752 5.7301826,57.919041 0 0 1 -6.8724,5.1501 5.7301826,57.919041 0 0 1 -2.3922,-65.3238 5.7301826,57.919041 0 0 1 5.5479,-41.3187"
       transform="matrix(-0.0508266,-0.99870749,0.41858407,0.90817805,0,0)"
       id="path4903-6-3-5-7"
       style="display:inline;opacity:1;fill:none;fill-opacity:1;stroke:#ff5555;stroke-width:4.91946554;stroke-miterlimit:4;stroke-dasharray:118.06716929, 4.91946539;stroke-dashoffset:0;stroke-opacity:1" />
    <path
       d="m 826.91688,1068.0762 a 10.54868,62.726364 0 0 1 -2.45901,72.6791 10.54868,62.726364 0 0 1 -12.39497,7.9766 10.54868,62.726364 0 0 1 -5.01693,-67.8682 10.54868,62.726364 0 0 1 9.36904,-48.9107"
       transform="matrix(0.53708824,-0.84352607,0.43657915,0.89966585,0,0)"
       id="path4903-6-3-6-3"
       style="display:inline;opacity:1;fill:none;fill-opacity:1;stroke:#ff5555;stroke-width:3.25115538;stroke-miterlimit:4;stroke-dasharray:78.02772763, 3.25115532;stroke-dashoffset:0;stroke-opacity:1" />
    <path
       d="m 708.24593,692.60898 a 86.753616,10.852367 0 0 1 47.02192,12.63809 86.753616,10.852367 0 0 1 -91.23921,8.00334 86.753616,10.852367 0 0 1 -78.96006,-9.83653 86.753616,10.852367 0 0 1 63.59935,-11.44661"
       transform="matrix(0.90206994,-0.43158988,0.52331188,0.85214123,0,0)"
       id="path4903-6-36-6"
       style="display:inline;opacity:1;fill:none;fill-opacity:1;stroke:#ff5555;stroke-width:3.00821352;stroke-miterlimit:4;stroke-dasharray:72.19712382, 3.00821349;stroke-dashoffset:0;stroke-opacity:1" />
  </g>
</svg>
