<?xml version="1.0" encoding="utf-8"?>
<!-- Generator: Adobe Illustrator 21.0.0, SVG Export Plug-In . SVG Version: 6.00 Build 0)  -->
<svg version="1.1"
	 id="svg2" xmlns:cc="http://creativecommons.org/ns#" xmlns:dc="http://purl.org/dc/elements/1.1/" xmlns:rdf="http://www.w3.org/1999/02/22-rdf-syntax-ns#" xmlns:svg="http://www.w3.org/2000/svg"
	 xmlns="http://www.w3.org/2000/svg" xmlns:xlink="http://www.w3.org/1999/xlink" x="0px" y="0px" viewBox="0 0 760.4 760.4"
	 style="enable-background:new 0 0 760.4 760.4;" xml:space="preserve">
<style type="text/css">
	.st0{fill:#37ABC8;}
	.st1{fill:#FFFFFF;stroke:#37ABC8;}
</style>
<circle class="st0" cx="380.2" cy="380.2" r="380.2"/>
<g id="g4823" transform="translate(0,-77.952775)">
	<path id="path4861" class="st1" d="M339,757.1L191.1,757l0.8-31.3c0.8-9.4,10.4-23,20.3-30c9.2-6.5,24.5-19.6,23.4-25.6
		c4-54.9,5.8-70.7-0.2-172.7l74,17.8c4.1,50.2,7.4,102,6.6,153.3c2.6,9.9,7.3,14.8,13.9,21.3l2.2,5.5L339,757.1z"/>
	<path id="path4863" class="st1" d="M226.7,269.5c-8.1,12,0.7,50,25.3,91.3c24.6,41.3,83.4,100,70.4,144.3
		c-1.3,3.6-4.9,10.6-7.5,13.6c-2.6,3-5.3,6-13.9,10.7c-8.5,4.8-18.1,8.4-30.7,5.8c-12.5-2.6-26.6-9-32.7-18.4
		c-25.8-48-51.9-97.4-74.9-142.9c-7.3-14.5-13.5-29.5-19.9-42.9c-3.6-16.2-11.8-34.1-7.6-47.5c4.2-12.9,9.5-15.7,14.7-19.4l19-13
		c7-7.6,4.3-11.8,9.4-12.8C194.7,248.7,231.9,254.4,226.7,269.5L226.7,269.5z"/>
	
		<ellipse id="circle4865" transform="matrix(0.1736 -0.9848 0.9848 0.1736 -253.7665 674.5944)" class="st1" cx="275.1" cy="488.5" rx="36.2" ry="36.2"/>
	<path id="path4867" class="st1" d="M640.9,470.9l0.3,15.2c0.1,6.6,1.5,15.5-3.5,18.6l0.5,19.6l-8.1,0.4c0.1-20.7-0.9-31.6-1.9-53.4
		L640.9,470.9z"/>
	<path id="path4869" class="st1" d="M628.9,501.9c-8.6,0.1-7.3,1-6.8,10.9c0.1,10.4-1.4,13,7.1,12.3L628.9,501.9z"/>
	<path id="path4871" class="st1" d="M677,411.3c4.3,5.3,9.3,8.6,12.5,17.1c3.8,12.2,3.6,20.3,4.5,31.1c0.2,5.3-1,9.1-10.5,10
		c-87.4,2.4-89.9,3.5-134.7,4.9c-8.2-1.2-9.3-4.9-10.2-10.9c-0.9-6-0.4-18.1,1.1-27.3c1.5-9.2,2.2-18.3,14.4-20.6l26-3L677,411.3z"
		/>
	<path id="path4873" class="st1" d="M575.9,372.5l1.2,10.7c20-1.9,34.5-2.4,47.6-2.8c9.1-0.3,15.9-1.3,19.8-2.6
		c2.6-0.8,3.9-0.8,4.2-3.6c0.1-1.2-0.7-3.5-1.1-5.3c-1.1-5.1-6.4-19.8-4.3-24.9c2.2-5.1,2.8-7.4,1.5-13.2
		c-3.2-14.4-5.1-28.7-7.4-41.4c-2.2-8.9-8.4-10.9-13.3-14.3c-18.9-7.6-39-5.1-52.6-0.4c-14.5,8.2-25.3,17.2-37.7,25.9L575.9,372.5z"
		/>
	<path id="path4875" class="st1" d="M647.3,385.3c0,0,23.3,6.5,25.9,7.2c2.6,0.7,9.5,3.4,9.1,11.2c-0.4,7.8-4.5,8.1-8,9
		c-3.5,1-25.5,2-31.2,1.2c-5.7-0.8-26.3-9.5-26.3-9.5l10.5-20.7L647.3,385.3z"/>
	<path id="path4877" class="st1" d="M644.3,377.8l-61.7,5.1l-0.1,25.1c-1.1,3.1-4.6,7.7,0.5,7.1c15.9-2.4,10.6,4.4,11.5,13.4
		c9.6,0.3,26.7-0.6,39.8-1.6c2.2-0.2-0.6-5.7,0.6-8.3c1.2-2.6,1.8-3.8,5-5.5c-3.1-1.6-7.1-1.5-8-6.9c1.7-7.2-8.5-25.5,12.9-21.3
		L644.3,377.8z"/>
	<path id="path4879" class="st1" d="M663.7,395.1c-9.4-1.5-11.2-0.1-9.7,7.1c1.1,4.9-0.5,7,9.6,7.2c12.1-0.8,11.1-3.3,10.9-5.9
		C673.4,397.4,667,396.2,663.7,395.1L663.7,395.1z"/>
	<path id="path4885" class="st1" d="M485.7,321.6c-23.9-9.4-43-20.9-64.4-31.3c-28.6-10.5-64.8-13.9-95.9-26.5
		c-18.1-9.6-33.2-19.2-51.5-24c-7.5-0.1-15.3,0.4-24.2,3.7l-19.3-57.3c4.2-0.8,10.4-1.9,12.8-4.1c6.2-8.4,10-15.5,16.9-23.2
		c9.4-7.9,23.9-10.7,41-6.9c62.9,18.3,102.2,51.5,137,87.5"/>
	<path id="path4881" class="st1" d="M492.8,267.4c11.8,5,13,5.8,14.4,6.1c1.5,0.3,6.4-3.5,38.6,3.9c32.1,7.4,40,31.5,31.7,56.7
		c-8.3,25.3-39.5,33.7-60.3,21.7c-10.3-5.2-18.2-15.7-31.6-34.1l-9.9-9.7l-80-40.3l-3.3-2.1c-13.3-8.5-21.4-20.7-15.5-35.9
		c7.6-15.6,22-14.5,35.5-8.2l25.8,14.2C438.2,239.6,481,262.4,492.8,267.4z"/>
	<path id="path4883" class="st1" d="M482.4,276.2l-19.2,7l-32.4-19.8l-3.3-17.2c-5.4-2.2-8.6-6.1-17.8-5.8
		c-9.2,0.3-12.4,12.7-7.3,21.3c5,8.6,58.2,30.3,80.8,45.6c15.1,9.7,26.1,23.6,31.2,28.4c5.1,4.7,10.6,7,16.6,8.3
		c6,1.2,23.5-3,27.9-9.7c4.5-6.7,4.5-12.6,4.1-20.1c-0.5-8.9-5-16.2-15.1-21.8c-10.6-3.9-21.8-4.8-33.3-6
		C502.5,286.1,492.4,281.2,482.4,276.2L482.4,276.2z"/>
	
		<ellipse id="circle4887" transform="matrix(0.6428 -0.766 0.766 0.6428 -95.8878 249.8321)" class="st1" cx="219.9" cy="227.7" rx="52.6" ry="52.6"/>
	
		<ellipse id="ellipse4889" transform="matrix(0.6428 -0.766 0.766 0.6428 -95.4927 250.7966)" class="st1" cx="221.2" cy="227.8" rx="33.5" ry="32.9"/>
	<path id="path4891" class="st1" d="M588.7,472.7l1,15.2c0.5,6.6-0.1,15.6,5.2,18.3l1.2,19.6l8.1-0.3c-1.9-20.6-1.8-31.6-2.8-53.3
		L588.7,472.7z"/>
	<path id="path4893" class="st1" d="M603.3,502.5c8.5-0.7,7.4,0.4,7.7,10.3c0.8,10.4,2.5,12.9-6,12.9L603.3,502.5z"/>
	<path id="path4895" class="st1" d="M614,441.5c-55.6,2.5-54.6,0.1-54.1,9.1c0.5,9-1.2,7.1,54.7,4.8c55.9-2.3,54.3,0.2,53.9-8.8
		C668,437.5,669.6,439,614,441.5L614,441.5z"/>
	<path id="path4897" class="st1" d="M314.1,748.4c-4.5,1-3.8-1.4-9.5-33.8c-5.7-32.4-8.4-33.6-3.3-35.3c5.1-1.8,4.4-0.7,10.6,32.9
		C318.2,745.8,318.6,747.4,314.1,748.4L314.1,748.4z"/>
	<path id="path4899" class="st1" d="M231.1,720.1l13.5-0.2c0.1,7.3-0.9,11.8-6.7,12C232.1,732.1,231.1,727.3,231.1,720.1
		L231.1,720.1z"/>
	<path id="path4901" class="st1" d="M261.8,719c4.4,0,6.3,4.3,6.4,6.7c0,2.4-2.2,6.1-6.5,6c-4.3-0.1-6.7-2.8-6.6-5.7
		C255.2,723,257.4,719,261.8,719z"/>
</g>
</svg>
